{"glyphs":{"0":{"ha":849,"x_min":14,"x_max":828,"o":"m 472 0 q 385 8 429 0 q 195 101 274 31 q 73 270 117 172 q 22 483 29 368 q 44 711 14 599 q 101 838 61 774 q 197 953 142 901 q 317 1039 251 1006 q 451 1072 383 1072 q 575 1038 518 1072 q 676 944 632 1003 q 754 811 721 886 q 807 654 788 736 q 825 523 822 594 q 818 379 828 451 q 783 238 808 307 q 717 117 758 169 q 614 32 675 64 q 472 0 553 0 m 336 599 q 328 522 326 558 q 342 458 331 486 q 373 412 354 431 q 415 388 392 393 q 440 383 428 383 q 495 411 476 383 q 522 477 514 439 q 530 555 531 515 q 525 617 529 594 q 496 690 518 667 q 446 713 474 713 q 407 702 425 713 q 374 675 389 692 q 350 638 360 658 q 336 599 340 618 z "},"1":{"ha":590,"x_min":35,"x_max":535,"o":"m 535 1054 l 522 1 l 171 0 l 222 696 l 35 688 l 94 1044 l 535 1054 z "},"2":{"ha":911,"x_min":19,"x_max":888,"o":"m 135 0 q 151 129 142 74 q 174 229 160 185 q 208 310 188 274 q 258 384 229 347 q 327 461 288 421 q 418 551 367 501 q 463 597 442 575 q 501 640 483 619 q 545 731 551 701 q 504 761 539 761 q 441 744 474 761 q 378 704 408 728 q 323 653 349 681 q 282 601 297 625 l 19 750 q 122 873 67 815 q 240 973 176 931 q 376 1040 303 1015 q 533 1064 449 1064 q 645 1050 592 1064 q 741 1008 699 1036 q 810 935 783 979 q 843 829 838 890 q 831 701 849 758 q 782 594 814 643 q 710 503 750 544 q 630 422 669 461 q 556 345 590 383 q 504 267 522 307 l 882 257 l 888 0 l 135 0 z "},"3":{"ha":707,"x_min":31,"x_max":688,"o":"m 350 1050 q 499 1026 436 1050 q 603 964 561 1001 q 665 881 644 926 q 686 790 685 835 q 681 732 688 760 q 661 679 674 704 q 633 632 649 654 q 601 592 618 610 q 513 514 563 549 q 604 465 568 500 q 658 383 640 429 q 674 283 675 336 q 657 181 674 231 q 608 91 640 132 q 529 28 576 50 q 443 6 494 13 q 335 0 392 0 q 231 3 282 0 q 138 13 179 7 q 46 24 89 17 l 104 268 q 158 258 128 261 q 221 254 189 254 q 298 261 261 254 q 356 288 335 268 q 381 327 374 304 q 378 382 389 350 q 349 428 368 411 q 307 456 329 446 q 263 468 285 465 q 225 471 242 471 l 207 471 q 200 469 203 469 l 196 543 q 254 564 226 553 q 301 587 278 575 q 340 610 325 599 q 404 684 390 650 q 406 743 418 718 q 360 783 393 768 q 283 797 326 797 q 185 777 236 797 q 94 711 135 757 l 31 978 q 204 1033 125 1017 q 350 1050 283 1050 z "},"4":{"ha":1028,"x_min":19,"x_max":986,"o":"m 543 1036 l 413 738 l 604 732 l 683 1033 l 986 1025 l 782 3 l 475 0 l 561 500 l 19 511 l 256 1047 l 543 1036 z "},"5":{"ha":822,"x_min":29,"x_max":792,"o":"m 69 269 q 217 247 150 247 q 336 269 289 247 q 406 322 383 290 q 422 390 428 353 q 380 459 415 428 q 278 512 344 490 q 110 533 211 533 l 88 533 l 190 1046 l 792 1038 l 757 776 l 421 796 l 396 676 q 624 591 538 651 q 747 456 711 531 q 769 300 782 381 q 698 153 756 219 q 540 43 640 86 q 300 0 439 0 q 283 0 292 0 q 265 1 274 0 q 174 6 217 4 q 100 10 132 7 q 29 15 61 13 l 69 269 z "},"6":{"ha":854,"x_min":10,"x_max":839,"o":"m 363 0 q 280 8 321 0 q 200 32 239 15 q 80 131 124 65 q 23 280 36 196 q 27 460 10 364 q 89 651 44 557 q 197 837 138 756 q 307 976 256 918 q 428 1092 368 1042 l 649 939 l 429 696 q 492 716 457 710 q 556 722 526 722 q 661 702 604 722 q 774 621 718 682 q 822 540 807 585 q 838 448 838 496 q 826 351 839 400 q 792 257 814 303 q 716 151 763 199 q 613 69 669 103 q 492 18 556 36 q 363 0 428 0 m 335 372 q 357 295 328 318 q 426 272 386 272 q 482 282 453 272 q 528 311 511 292 q 555 360 546 332 q 559 417 564 389 q 533 467 554 444 q 465 499 511 490 l 461 499 q 447 497 453 499 q 418 490 435 496 q 385 469 401 483 q 354 432 368 456 q 335 372 340 408 z "},"7":{"ha":922,"x_min":29,"x_max":904,"o":"m 904 1022 l 599 503 l 729 503 l 708 311 l 539 313 l 407 1 l 85 0 l 222 313 l 74 313 l 93 503 l 314 503 l 432 753 l 29 751 l 33 1035 l 904 1022 z "},"8":{"ha":815,"x_min":14,"x_max":792,"o":"m 463 1053 q 575 1028 528 1053 q 651 962 622 1003 q 692 870 681 921 q 696 767 703 819 q 606 617 681 669 q 696 555 658 593 q 756 470 733 517 q 785 372 778 424 q 783 267 792 319 q 736 146 772 196 q 649 63 700 96 q 534 15 597 31 q 404 0 471 0 q 303 10 356 0 q 203 40 251 19 q 115 91 156 60 q 49 167 74 122 q 20 248 26 206 q 21 333 14 290 q 47 416 28 375 q 94 492 67 457 q 261 617 158 575 q 221 650 239 632 q 190 692 203 668 q 171 753 175 721 q 172 817 167 785 q 190 878 176 849 q 222 935 203 908 q 328 1024 265 994 q 463 1053 390 1053 m 288 328 q 288 281 281 301 q 310 246 294 260 q 347 225 325 232 q 392 218 369 218 q 463 240 431 218 q 497 311 496 263 q 475 382 499 351 q 403 413 451 413 q 331 390 363 413 q 288 328 299 368 m 356 813 q 360 765 349 785 q 392 738 372 746 q 426 731 408 731 q 476 747 454 731 q 499 800 499 764 q 483 853 500 829 q 433 876 467 876 q 383 858 404 876 q 356 813 363 840 z "},"9":{"ha":865,"x_min":22,"x_max":850,"o":"m 306 344 q 199 365 257 344 q 88 447 142 386 q 39 527 54 483 q 23 619 24 571 q 35 716 22 667 q 69 811 47 765 q 144 917 99 869 q 247 997 190 964 q 369 1049 304 1031 q 499 1067 433 1067 q 581 1059 540 1067 q 661 1035 622 1051 q 781 938 738 1003 q 838 788 825 872 q 833 608 850 704 q 772 417 817 511 q 665 231 724 313 q 554 93 606 150 q 433 -24 493 26 l 211 129 l 431 372 q 369 351 406 358 q 306 344 333 344 m 333 756 q 306 707 315 735 q 302 651 297 679 q 328 601 307 624 q 396 568 350 578 q 485 606 450 568 q 526 694 519 643 q 504 772 533 750 q 435 794 475 794 q 379 785 408 794 q 333 756 350 775 z "},"\u0000":{"ha":0,"x_min":0,"x_max":0,"o":""},"\r":{"ha":347,"x_min":0,"x_max":0,"o":""}," ":{"ha":347,"x_min":0,"x_max":0,"o":""},"A":{"ha":981,"x_min":11,"x_max":963,"o":"m 682 1036 l 963 3 l 681 1 l 638 193 l 421 194 l 399 1 l 11 0 l 239 1036 l 682 1036 m 432 381 l 607 383 l 575 549 l 449 549 l 432 381 z "},"B":{"ha":769,"x_min":10,"x_max":763,"o":"m 343 -19 q 179 -12 260 -19 q 32 -1 99 -4 l 10 1035 q 141 1055 76 1049 q 265 1061 206 1061 q 339 1058 299 1061 q 419 1049 379 1056 q 497 1030 460 1042 q 561 999 533 1018 q 633 907 611 965 q 650 787 656 849 q 610 671 644 725 q 510 592 575 617 q 651 542 593 586 q 735 433 708 499 q 757 285 763 367 q 708 124 751 204 q 641 48 683 76 q 549 5 599 19 q 445 -15 499 -10 q 343 -19 392 -19 m 346 190 q 385 203 369 194 q 441 249 421 219 q 463 310 461 279 q 445 369 464 342 q 385 408 426 396 q 365 413 375 411 q 342 414 354 414 l 346 190 m 385 876 q 343 888 367 886 l 346 731 q 385 744 369 735 q 417 774 406 756 q 428 811 428 792 q 417 849 428 831 q 385 876 407 867 z "},"C":{"ha":844,"x_min":6,"x_max":832,"o":"m 254 990 q 376 1041 307 1022 q 536 1060 446 1060 q 645 1053 588 1060 q 769 1031 703 1046 l 678 717 q 550 746 607 746 q 428 711 479 746 q 345 624 376 676 q 304 511 314 572 q 306 398 294 450 q 353 311 318 346 q 446 276 388 276 q 512 287 479 276 q 576 313 544 297 q 635 349 607 329 q 689 390 664 369 l 832 169 q 726 85 788 122 q 599 26 674 53 q 425 0 524 0 q 409 0 417 0 q 393 1 401 0 q 191 69 272 8 q 66 223 110 131 q 14 428 22 315 q 31 648 6 540 q 113 847 56 756 q 254 990 169 939 z "},"D":{"ha":767,"x_min":18,"x_max":761,"o":"m 146 0 q 113 1 129 0 q 79 3 96 1 l 18 1049 l 86 1049 q 252 1042 164 1049 q 423 1014 340 1036 q 576 948 506 992 q 692 829 647 904 q 747 679 732 761 q 753 515 761 597 q 715 356 744 433 q 638 221 686 279 q 537 126 593 167 q 417 56 481 85 q 284 14 353 28 q 146 0 215 0 m 343 414 q 399 436 376 421 q 439 481 425 454 q 454 535 453 507 q 442 587 456 563 q 399 625 428 611 q 349 639 379 635 l 343 414 z "},"E":{"ha":747,"x_min":15,"x_max":736,"o":"m 33 0 l 15 1038 l 736 1036 l 721 706 l 308 706 l 310 522 l 547 522 l 547 350 l 326 349 l 328 207 l 678 215 l 678 1 l 33 0 z "},"F":{"ha":817,"x_min":18,"x_max":800,"o":"m 797 1036 l 800 753 l 361 750 l 358 606 l 600 600 l 604 410 l 369 415 l 376 0 l 18 0 l 29 1036 l 797 1036 z "},"G":{"ha":965,"x_min":7,"x_max":951,"o":"m 947 389 q 939 291 951 339 q 901 200 926 243 q 838 121 875 157 q 751 60 800 85 q 632 15 696 29 q 501 0 568 0 q 385 12 443 0 q 274 47 326 24 q 178 105 222 69 q 103 186 135 140 q 47 296 68 236 q 16 419 25 356 q 11 549 7 483 q 31 679 15 615 q 108 868 58 792 q 222 991 157 944 q 367 1058 288 1038 q 536 1078 447 1078 q 739 1058 635 1078 q 950 1007 843 1039 l 860 726 q 717 769 788 751 q 585 786 647 786 q 439 747 501 786 q 344 607 376 707 q 328 494 328 553 q 350 388 328 436 q 417 309 372 340 q 532 278 461 278 l 546 278 q 604 304 582 285 q 626 349 626 324 q 611 392 626 372 q 571 425 596 411 q 515 448 546 439 q 453 458 483 457 l 517 711 q 687 681 610 701 q 819 624 764 661 q 908 531 875 588 q 947 389 942 474 z "},"H":{"ha":938,"x_min":15,"x_max":918,"o":"m 354 1035 l 349 713 l 567 707 l 576 1038 l 918 1033 l 890 0 l 535 0 l 547 447 l 340 447 l 328 0 l 15 0 l 26 1035 l 354 1035 z "},"I":{"ha":442,"x_min":29,"x_max":410,"o":"m 36 1036 l 410 1036 l 403 0 l 29 0 l 36 1036 z "},"J":{"ha":768,"x_min":15,"x_max":743,"o":"m 358 -44 q 201 -6 276 -44 q 72 115 125 32 q 23 271 31 182 q 22 464 15 360 l 293 465 l 297 349 q 323 275 299 300 q 375 250 347 250 q 428 276 404 250 q 449 354 451 301 l 443 807 l 188 803 l 181 1043 l 732 1042 l 742 344 q 710 185 743 257 q 624 62 678 113 q 500 -17 569 11 q 358 -44 431 -44 z "},"K":{"ha":1069,"x_min":28,"x_max":1044,"o":"m 421 1042 l 417 599 l 693 1042 l 1044 1042 l 671 458 l 997 1 l 649 0 l 401 386 l 411 3 l 28 3 l 31 1042 l 421 1042 z "},"L":{"ha":800,"x_min":67,"x_max":779,"o":"m 76 0 l 67 1039 l 394 1039 l 400 347 l 772 351 l 779 0 l 76 0 z "},"M":{"ha":1239,"x_min":32,"x_max":1217,"o":"m 35 0 l 32 1038 l 293 1040 l 626 640 l 922 1039 l 1181 1039 l 1217 0 l 904 0 l 886 524 l 624 275 l 400 481 l 399 0 l 35 0 z "},"N":{"ha":1046,"x_min":29,"x_max":1014,"o":"m 338 1036 l 700 465 l 706 1038 l 1004 1038 l 1014 0 l 724 1 l 379 489 l 374 0 l 29 0 l 46 1038 l 338 1036 z "},"O":{"ha":1024,"x_min":17,"x_max":1017,"o":"m 119 819 q 308 1012 194 943 q 567 1081 422 1081 q 777 1024 689 1081 q 920 878 865 968 q 996 674 975 788 q 1001 444 1017 560 q 965 294 992 365 q 890 165 939 224 q 719 41 818 82 q 515 0 621 0 q 376 18 444 0 q 247 72 307 36 q 138 159 186 107 q 60 278 90 211 q 24 413 31 342 q 26 554 17 483 q 60 693 35 625 q 119 819 85 761 m 367 544 q 367 467 358 501 q 396 410 376 433 q 442 374 415 386 q 499 363 469 363 q 592 401 550 363 q 635 518 633 439 q 628 581 635 550 q 606 635 621 611 q 567 672 590 658 q 514 686 544 686 q 459 674 483 686 q 416 643 435 663 q 385 598 397 624 q 367 544 372 572 z "},"P":{"ha":861,"x_min":31,"x_max":844,"o":"m 36 4 l 31 1042 q 209 1062 110 1049 q 410 1075 308 1075 q 528 1068 468 1075 q 642 1041 588 1061 q 740 985 696 1021 q 811 890 785 949 q 841 770 838 835 q 828 644 844 706 q 774 530 811 583 q 683 443 738 476 q 570 397 631 411 q 447 383 510 383 q 421 385 428 383 q 411 385 415 385 l 419 0 l 36 4 m 388 642 q 453 660 428 646 q 507 708 489 678 q 526 769 525 738 q 508 826 526 800 q 453 865 490 853 q 400 874 431 874 q 381 872 388 874 l 388 642 z "},"Q":{"ha":1124,"x_min":19,"x_max":1107,"o":"m 124 815 q 318 1011 203 944 q 583 1078 433 1078 q 764 1046 681 1078 q 910 958 847 1014 q 1013 828 974 903 q 1063 666 1053 753 q 1052 485 1074 579 q 971 297 1031 390 l 1107 135 l 890 -36 l 792 72 q 661 15 731 33 q 519 -4 592 -4 q 381 14 449 -4 q 252 67 313 32 q 143 153 192 101 q 64 274 94 206 q 27 408 35 338 q 29 550 19 479 q 63 689 39 621 q 124 815 88 757 m 401 554 q 402 477 393 511 q 431 419 411 443 q 477 384 450 396 q 533 372 504 372 q 626 411 585 374 q 669 529 668 449 q 663 592 669 561 q 640 645 656 622 q 602 682 625 668 q 549 696 579 696 q 494 684 518 696 q 451 653 469 672 q 419 608 432 633 q 401 554 407 582 z "},"R":{"ha":1038,"x_min":29,"x_max":1013,"o":"m 35 4 l 29 1042 q 215 1062 111 1049 q 425 1075 318 1075 q 546 1068 483 1075 q 665 1042 608 1061 q 767 985 721 1022 q 843 890 814 949 q 873 777 868 838 q 863 658 878 717 q 815 547 849 599 q 732 458 782 494 l 1013 1 l 633 1 l 425 385 l 433 0 l 35 4 m 401 642 q 469 660 442 646 q 525 708 506 678 q 545 769 544 738 q 527 826 546 800 q 469 865 508 853 q 414 874 444 874 q 393 872 400 874 l 401 642 z "},"S":{"ha":879,"x_min":25,"x_max":854,"o":"m 125 372 q 240 344 181 357 q 357 331 299 331 q 400 341 382 332 q 423 364 418 350 q 419 394 428 378 q 385 424 411 410 q 319 452 351 442 q 255 472 286 463 q 194 492 224 482 q 140 517 165 501 q 76 578 101 540 q 38 659 50 615 q 27 749 25 703 q 43 833 29 794 q 133 965 69 908 q 279 1047 196 1022 q 443 1068 349 1068 q 628 1051 531 1068 q 819 1003 725 1035 l 731 683 l 554 732 q 489 742 519 742 q 431 728 451 742 q 411 694 411 714 q 433 651 411 674 q 500 614 454 629 q 630 572 567 592 q 743 521 693 551 q 824 442 793 490 q 854 314 854 393 q 835 207 854 260 q 781 112 817 154 q 694 41 746 69 q 575 7 642 13 q 526 1 551 3 q 474 0 501 0 q 327 9 401 0 q 190 29 253 18 q 51 57 118 42 l 125 372 z "},"T":{"ha":1049,"x_min":40,"x_max":1013,"o":"m 1013 1040 l 1013 675 l 689 672 l 683 0 l 308 1 l 343 675 l 40 668 l 42 1040 l 1013 1040 z "},"U":{"ha":954,"x_min":42,"x_max":911,"o":"m 475 0 q 332 21 403 0 q 203 82 261 42 q 106 182 146 122 q 57 319 67 242 q 48 419 51 364 q 43 532 44 474 q 42 650 42 590 q 43 765 42 710 q 54 1032 46 896 l 385 1031 l 361 508 q 368 444 360 472 q 394 400 375 421 q 449 378 413 379 q 453 376 450 376 q 507 395 489 376 q 533 438 525 414 q 543 499 543 464 l 564 1032 l 907 1033 q 908 852 906 953 q 911 648 911 751 q 904 446 911 544 q 876 271 897 347 q 818 162 860 211 q 720 76 776 113 q 599 20 664 40 q 475 0 535 0 z "},"V":{"ha":1196,"x_min":21,"x_max":1174,"o":"m 636 540 l 803 1040 l 1174 1040 l 796 0 l 494 1 l 21 1039 l 456 1038 l 636 540 z "},"W":{"ha":1733,"x_min":50,"x_max":1688,"o":"m 338 1 l 50 1039 l 467 1040 l 607 531 l 899 1040 l 1157 531 l 1332 1040 l 1688 1038 l 1367 0 l 1039 0 l 890 417 l 665 0 l 338 1 z "},"X":{"ha":1328,"x_min":28,"x_max":1301,"o":"m 446 518 l 28 1046 l 386 1047 l 624 733 l 831 1051 l 1301 1046 l 867 446 l 1214 0 l 863 0 l 711 192 l 604 7 l 111 7 l 446 518 z "},"Y":{"ha":1240,"x_min":29,"x_max":1213,"o":"m 513 413 l 29 1040 l 421 1039 l 663 733 l 810 1039 l 1213 1040 l 722 0 l 304 1 l 513 413 z "},"Z":{"ha":1003,"x_min":32,"x_max":981,"o":"m 135 1039 l 981 1039 l 619 399 l 964 393 l 951 0 l 32 0 l 429 713 l 128 704 l 135 1039 z "},"$":{"ha":679,"x_min":18,"x_max":657,"o":"m 561 625 l 425 660 q 375 668 399 668 q 331 658 346 668 q 315 633 315 647 q 332 601 315 618 q 383 574 349 585 q 484 542 435 557 q 572 506 533 528 q 633 448 610 483 q 657 354 657 413 q 644 281 657 317 q 608 215 632 244 q 550 163 585 185 q 469 133 515 142 l 468 0 l 215 0 l 215 135 q 147 145 179 140 q 89 156 114 150 q 38 167 61 161 l 94 397 q 183 376 138 386 q 274 367 229 367 q 306 374 293 367 q 324 391 319 381 q 322 413 328 401 q 294 435 315 425 q 244 456 269 447 q 194 470 218 464 q 148 484 171 476 q 106 503 125 492 q 56 547 75 519 q 27 607 36 575 q 19 672 18 639 q 31 735 19 706 q 106 835 53 793 q 218 893 158 878 l 219 1039 l 474 1039 l 472 896 q 552 880 513 889 q 631 858 592 871 l 561 625 z "},"½":{"ha":1019,"x_min":21,"x_max":996,"o":"m 65 4 l 553 1029 l 832 1029 l 343 4 l 65 4 m 561 376 q 672 488 610 442 q 819 533 735 533 q 875 526 849 533 q 922 505 901 519 q 957 468 943 490 q 974 415 971 446 q 957 324 978 363 q 907 253 936 285 q 848 193 878 221 q 804 133 818 165 l 993 129 l 996 0 l 619 0 q 628 72 622 42 q 642 125 633 101 q 663 169 650 149 q 696 210 676 189 q 726 241 710 225 q 761 276 742 257 q 783 299 772 288 q 803 321 793 310 q 825 367 828 353 q 804 382 822 382 q 772 374 789 382 q 740 353 756 365 q 713 326 725 340 q 693 301 700 313 l 561 376 m 21 844 l 51 1022 l 272 1028 l 265 500 l 90 500 l 117 849 l 21 844 z "},"@":{"ha":1060,"x_min":11,"x_max":1046,"o":"m 549 803 q 399 768 471 803 q 278 658 326 733 q 219 524 232 589 q 220 404 207 460 q 269 303 233 349 q 353 226 304 258 q 460 177 401 194 q 576 160 518 160 q 633 164 604 160 l 625 -29 l 611 -29 q 435 -7 521 -29 q 277 57 350 15 q 147 158 204 99 q 57 290 90 217 q 17 448 24 363 q 39 628 11 533 q 114 772 63 708 q 233 878 165 835 q 381 945 301 922 q 542 968 461 968 q 702 945 624 968 q 846 876 781 922 q 959 763 911 831 q 1028 607 1007 696 q 1040 457 1046 532 q 997 315 1033 382 q 954 251 979 281 q 901 201 929 222 q 842 169 872 181 q 783 157 813 157 q 694 193 735 157 q 629 314 653 229 q 577 276 606 288 q 519 264 549 264 q 454 278 486 264 q 395 315 422 292 q 349 369 368 338 q 324 436 331 401 q 329 534 314 486 q 380 621 344 582 q 467 683 415 660 q 583 707 519 707 q 671 694 625 707 l 661 578 q 639 583 651 581 q 614 588 628 586 q 583 589 600 589 q 517 578 551 589 q 460 532 482 567 q 439 469 439 499 q 453 417 439 439 q 490 383 467 396 q 540 369 514 369 q 605 397 575 369 q 642 488 635 424 l 742 475 q 733 410 733 440 q 742 358 733 383 q 775 321 750 333 q 794 317 786 317 q 835 338 817 317 q 865 390 853 358 q 880 462 876 422 q 875 540 883 501 q 831 653 863 604 q 754 735 799 701 q 657 785 710 768 q 549 803 604 803 z "},"#":{"ha":1067,"x_min":25,"x_max":1035,"o":"m 263 960 l 494 943 l 458 757 l 685 764 l 724 960 l 957 943 l 924 771 l 1035 775 l 1017 535 l 876 531 l 853 407 l 1035 413 l 1017 172 l 806 167 l 769 -25 l 526 -19 l 563 160 l 342 154 l 307 -25 l 64 -19 l 99 147 l 25 146 l 39 383 l 146 386 l 172 511 l 25 508 l 39 744 l 219 750 l 263 960 m 388 393 l 611 400 l 636 524 l 413 518 l 388 393 z "},"?":{"ha":743,"x_min":17,"x_max":729,"o":"m 504 772 q 455 842 496 818 q 367 865 414 865 q 313 857 339 865 q 268 832 288 849 q 243 794 250 815 q 242 751 236 772 q 267 710 247 729 q 321 681 286 692 l 240 531 q 106 597 160 550 q 34 706 51 644 q 39 837 17 768 q 132 968 61 906 q 239 1028 181 1013 q 361 1043 297 1043 l 382 1043 q 490 1026 438 1043 q 587 980 543 1010 q 663 908 631 950 q 710 817 696 867 q 717 700 729 751 q 673 607 704 649 q 601 530 642 565 q 522 459 560 494 q 458 385 485 424 q 431 300 432 347 l 207 300 q 233 422 208 372 q 292 509 257 472 q 368 574 328 546 q 441 632 408 603 q 492 694 474 661 q 504 772 511 726 m 290 -12 q 200 17 232 -11 q 158 84 168 46 q 159 163 149 122 q 197 228 169 203 q 256 263 224 251 q 322 275 289 275 q 406 253 367 275 q 463 188 446 232 q 467 117 475 153 q 436 53 460 82 q 377 5 413 24 q 299 -14 342 -14 q 294 -13 296 -14 q 290 -12 293 -12 z "},"!":{"ha":511,"x_min":18,"x_max":490,"o":"m 76 282 l 76 1063 l 490 1043 l 485 1019 l 490 1019 l 324 279 l 76 282 m 67 229 q 128 265 94 253 q 199 278 163 278 q 289 255 247 278 q 349 188 331 232 q 356 159 354 172 q 356 131 357 146 q 346 67 358 99 q 308 11 333 36 q 249 -29 283 -14 q 174 -44 214 -44 l 167 -44 q 98 -29 126 -43 q 51 6 69 -15 q 26 53 33 26 q 21 107 19 81 q 31 174 18 142 q 67 229 43 207 z "},"&":{"ha":1053,"x_min":14,"x_max":1026,"o":"m 464 1054 q 576 1028 529 1054 q 653 963 624 1003 q 693 871 682 922 q 696 768 704 819 q 607 618 683 671 q 682 539 647 576 l 726 628 l 911 536 l 839 382 q 935 284 890 331 q 1026 186 981 238 l 808 21 l 714 117 q 570 27 656 54 q 401 0 485 0 q 295 10 347 0 q 197 42 243 21 q 112 94 150 63 q 49 168 74 125 q 20 249 26 207 q 22 334 14 292 q 49 417 29 376 q 96 493 68 458 q 263 618 160 576 q 192 693 217 647 q 172 817 160 751 q 224 936 185 883 q 329 1025 267 996 q 464 1054 392 1054 m 425 413 q 414 414 419 414 q 403 414 408 414 q 332 391 364 414 q 289 329 300 368 q 291 277 282 301 q 319 234 300 253 q 364 202 338 215 q 418 185 390 189 q 433 183 425 183 q 447 183 440 183 q 489 190 469 183 q 523 208 508 196 q 545 242 538 221 q 550 292 553 263 l 425 413 m 435 876 q 418 875 424 876 l 415 875 q 378 853 393 869 q 356 814 363 836 q 368 756 347 776 q 418 732 389 735 q 475 748 451 732 q 500 801 499 764 q 484 853 500 831 q 435 876 468 876 z "},"%":{"ha":1381,"x_min":25,"x_max":1361,"o":"m 814 168 q 793 249 797 207 q 794 335 789 292 q 813 419 799 378 q 847 494 826 460 q 954 609 890 567 q 1104 651 1018 651 q 1224 617 1174 651 q 1306 529 1275 583 q 1349 406 1338 475 q 1353 268 1361 338 q 1324 163 1346 211 q 1268 78 1303 114 q 1185 21 1233 42 q 1075 0 1136 0 q 919 44 990 0 q 814 168 847 89 m 50 600 q 29 681 33 639 q 30 767 25 724 q 49 851 35 810 q 83 926 63 892 q 190 1040 125 997 q 339 1083 254 1083 q 428 1067 389 1083 q 508 1009 474 1047 q 562 921 542 971 q 588 814 582 871 q 588 700 594 757 q 560 594 581 643 q 503 508 539 544 q 419 452 468 472 q 310 432 371 432 q 157 474 229 432 q 50 600 85 517 m 865 1106 l 1151 1106 l 550 0 l 265 0 l 865 1106 m 989 329 q 990 282 985 303 q 1006 247 994 261 q 1033 226 1017 233 q 1065 219 1049 219 q 1118 242 1094 219 q 1143 314 1142 265 q 1126 383 1143 353 q 1074 414 1110 414 q 1017 388 1038 414 q 989 329 996 361 m 225 761 q 226 714 221 735 q 242 679 231 693 q 269 658 253 665 q 301 651 285 651 q 359 680 340 651 q 379 744 378 708 q 365 810 379 781 q 322 844 351 839 q 310 846 318 846 q 253 819 274 846 q 225 761 232 793 z "},"*":{"ha":893,"x_min":18,"x_max":874,"o":"m 63 419 l 246 564 l 18 669 l 103 881 l 325 753 l 308 996 l 579 985 l 551 756 l 761 869 l 874 656 l 604 547 l 771 408 l 608 210 l 414 422 l 222 228 l 63 419 z "},",":{"ha":410,"x_min":14,"x_max":390,"o":"m 331 0 q 277 -57 310 -31 q 207 -103 244 -83 q 130 -135 169 -122 q 54 -153 90 -149 q 86 -108 71 -132 q 108 -63 97 -89 q 121 -10 118 -37 q 57 39 82 8 q 24 106 35 65 q 33 210 14 147 q 101 300 54 272 q 200 328 147 328 q 294 304 249 328 q 365 238 340 281 q 386 134 390 194 q 331 0 382 74 z "},"'":{"ha":400,"x_min":8,"x_max":385,"o":"m 325 689 q 272 633 304 658 q 201 587 239 607 q 124 554 164 567 q 49 536 85 542 q 81 581 65 557 q 102 626 92 600 q 115 679 113 651 q 51 728 76 697 q 19 796 29 754 q 28 899 8 838 q 95 990 49 961 q 194 1018 142 1018 q 289 994 243 1018 q 360 928 335 971 q 381 824 385 885 q 325 689 376 763 z "},".":{"ha":358,"x_min":13,"x_max":342,"o":"m 156 0 q 65 35 97 3 q 22 110 32 67 q 23 197 13 153 q 61 271 33 242 q 121 310 88 297 q 188 324 154 324 q 274 299 233 324 q 329 225 314 274 q 334 147 342 186 q 303 74 326 107 q 243 21 279 42 q 164 0 207 0 l 156 0 z "},":":{"ha":369,"x_min":18,"x_max":349,"o":"m 68 792 q 127 832 94 819 q 194 844 160 844 q 280 820 240 844 q 336 747 319 796 q 341 669 349 708 q 310 597 333 629 q 250 543 286 564 q 171 522 214 522 l 163 522 q 72 557 104 525 q 28 631 39 589 q 29 719 18 674 q 68 792 40 764 m 68 414 q 127 454 94 442 q 194 467 160 467 q 280 442 240 467 q 336 369 319 418 q 341 291 349 331 q 310 219 333 251 q 250 165 286 186 q 171 144 214 144 l 163 144 q 72 179 104 147 q 28 253 39 211 q 29 341 18 296 q 68 414 40 386 z "},";":{"ha":404,"x_min":10,"x_max":385,"o":"m 29 382 q 96 473 50 444 q 194 501 142 501 q 290 478 244 501 q 360 411 335 454 q 381 307 385 368 q 325 172 376 246 q 272 116 304 142 q 201 70 239 90 q 124 38 164 50 q 49 19 85 25 q 81 64 67 40 q 103 109 93 83 q 117 163 114 135 q 53 211 78 181 q 20 278 31 238 q 29 382 10 319 m 83 797 q 142 837 110 824 q 210 850 175 850 q 295 825 256 850 q 351 751 335 800 q 356 673 364 713 q 325 601 349 633 q 265 547 301 568 q 185 526 229 526 l 178 526 q 87 561 119 529 q 44 636 54 593 q 44 724 33 679 q 83 797 56 768 z "},"+":{"ha":1024,"x_min":28,"x_max":999,"o":"m 28 664 l 339 661 l 340 971 l 690 971 l 689 658 l 999 657 l 999 307 l 686 310 l 685 0 l 335 0 l 338 311 l 28 313 l 28 664 z "},"×":{"ha":992,"x_min":32,"x_max":964,"o":"m 32 243 l 253 468 l 32 690 l 283 935 l 499 717 l 713 935 l 964 690 l 743 468 l 964 243 l 714 0 l 499 218 l 282 0 l 32 243 z "},"−":{"ha":950,"x_min":38,"x_max":917,"o":"m 39 671 l 917 664 l 917 314 l 38 321 l 39 671 z "},"÷":{"ha":922,"x_min":24,"x_max":901,"o":"m 901 731 l 901 382 l 24 388 l 24 738 l 901 731 m 440 0 q 369 19 399 0 q 321 68 339 38 q 296 138 303 99 q 293 215 289 176 q 344 324 301 282 q 457 365 386 365 q 548 341 506 365 q 611 271 590 317 q 623 178 631 228 q 592 89 615 129 q 527 24 565 47 q 440 0 489 0 m 306 847 q 294 940 286 890 q 325 1031 301 990 q 389 1094 350 1071 q 476 1118 428 1118 q 548 1099 518 1118 q 596 1050 578 1081 q 621 981 614 1019 q 622 903 628 942 q 572 794 614 836 q 458 753 529 753 q 368 777 411 753 q 306 847 325 801 z "},"=":{"ha":1013,"x_min":65,"x_max":943,"o":"m 943 446 l 943 96 l 65 103 l 65 453 l 943 446 m 65 876 l 943 869 l 943 521 l 65 526 l 65 876 z "},"-":{"ha":1014,"x_min":65,"x_max":944,"o":"m 67 638 l 944 631 l 944 281 l 65 288 l 67 638 z "}}}
